<svg width="36" height="36" viewBox="0 0 36 36" fill="none" xmlns="http://www.w3.org/2000/svg">
<path d="M3.375 14.625H6.75V23.625H4.5C4.20163 23.625 3.91548 23.7435 3.7045 23.9545C3.49353 24.1655 3.375 24.4516 3.375 24.75C3.375 25.0484 3.49353 25.3345 3.7045 25.5455C3.91548 25.7565 4.20163 25.875 4.5 25.875H31.5C31.7984 25.875 32.0845 25.7565 32.2955 25.5455C32.5065 25.3345 32.625 25.0484 32.625 24.75C32.625 24.4516 32.5065 24.1655 32.2955 23.9545C32.0845 23.7435 31.7984 23.625 31.5 23.625H29.25V14.625H32.625C32.8695 14.6246 33.1072 14.5445 33.3021 14.3969C33.497 14.2494 33.6385 14.0423 33.7053 13.8071C33.772 13.5719 33.7603 13.3214 33.672 13.0935C33.5836 12.8655 33.4234 12.6725 33.2156 12.5437L18.5906 3.54374C18.4137 3.43266 18.2089 3.37373 18 3.37373C17.7911 3.37373 17.5863 3.43266 17.4094 3.54374L2.78437 12.5437C2.57657 12.6725 2.41637 12.8655 2.32803 13.0935C2.23968 13.3214 2.228 13.5719 2.29474 13.8071C2.36148 14.0423 2.50302 14.2494 2.69793 14.3969C2.89285 14.5445 3.13053 14.6246 3.375 14.625ZM9 14.625H13.5V23.625H9V14.625ZM20.25 14.625V23.625H15.75V14.625H20.25ZM27 23.625H22.5V14.625H27V23.625ZM18 5.82187L28.6453 12.375H7.35469L18 5.82187ZM34.875 29.25C34.875 29.5484 34.7565 29.8345 34.5455 30.0455C34.3345 30.2565 34.0484 30.375 33.75 30.375H2.25C1.95163 30.375 1.66548 30.2565 1.4545 30.0455C1.24353 29.8345 1.125 29.5484 1.125 29.25C1.125 28.9516 1.24353 28.6655 1.4545 28.4545C1.66548 28.2435 1.95163 28.125 2.25 28.125H33.75C34.0484 28.125 34.3345 28.2435 34.5455 28.4545C34.7565 28.6655 34.875 28.9516 34.875 29.25Z" fill="#04D361"/>
</svg>
